<?xml version="1.0" encoding="UTF-8"?>
<svg width="24" height="24" viewBox="0 0 24 24" fill="none" xmlns="http://www.w3.org/2000/svg">
<path fill-rule="evenodd" clip-rule="evenodd" d="M1 12C1 5.928 5.928 1 12 1C18.072 1 23 5.928 23 12C23 18.072 18.072 23 12 23C5.928 23 1 18.072 1 12ZM3.2 12C3.2 16.862 7.138 20.8 12 20.8C16.862 20.8 20.8 16.862 20.8 12C20.8 7.138 16.862 3.2 12 3.2C7.138 3.2 3.2 7.138 3.2 12ZM17 12C17 14.7614 14.7614 17 12 17C9.23858 17 7 14.7614 7 12C7 9.23858 9.23858 7 12 7C14.7614 7 17 9.23858 17 12Z" fill="black"/>
</svg>
